<svg width="20" height="21" viewBox="0 0 20 21" fill="none" xmlns="http://www.w3.org/2000/svg">
<rect width="20" height="20" transform="translate(0 0.5)" fill="#245F43"/>
<path d="M17.5001 18L13.7617 14.255L17.5001 18ZM15.8334 9.25002C15.8334 11.1286 15.0871 12.9303 13.7588 14.2587C12.4304 15.5871 10.6287 16.3334 8.75008 16.3334C6.87146 16.3334 5.06979 15.5871 3.74141 14.2587C2.41303 12.9303 1.66675 11.1286 1.66675 9.25002C1.66675 7.3714 2.41303 5.56973 3.74141 4.24135C5.06979 2.91296 6.87146 2.16669 8.75008 2.16669C10.6287 2.16669 12.4304 2.91296 13.7588 4.24135C15.0871 5.56973 15.8334 7.3714 15.8334 9.25002V9.25002Z" stroke="white" stroke-width="2" stroke-linecap="round"/>
</svg>
